<?xml version="1.0" standalone="no"?>
<!DOCTYPE svg PUBLIC "-//W3C//DTD SVG 20010904//EN"
 "http://www.w3.org/TR/2001/REC-SVG-20010904/DTD/svg10.dtd">
<svg version="1.0" xmlns="http://www.w3.org/2000/svg"
 width="300.000000pt" height="300.000000pt" viewBox="0 0 300.000000 300.000000"
 preserveAspectRatio="xMidYMid meet">
<metadata>
Created by potrace 1.11, written by Peter Selinger 2001-2013
</metadata>
<g transform="translate(0.000000,300.000000) scale(0.100000,-0.100000)"
fill="#000000" stroke="none">
<path d="M1482 2988 c-27 -27 -9 -54 138 -200 83 -82 150 -155 150 -161 0 -13
-18 4 -205 191 -145 144 -167 158 -199 126 -33 -33 -30 -38 175 -242 115 -115
150 -155 141 -164 -9 -9 -60 37 -210 186 -109 109 -205 202 -213 207 -41 26
-102 -6 -94 -49 2 -9 4 -21 4 -26 1 -5 94 -103 209 -218 114 -114 209 -213
210 -218 2 -6 -3 -10 -11 -10 -8 0 -96 81 -194 179 -98 99 -191 185 -206 190
-32 12 -71 0 -81 -24 -9 -26 -7 -65 4 -65 6 0 10 -5 10 -11 0 -7 10 -22 23
-34 12 -12 35 -35 50 -52 l28 -30 -78 -77 c-87 -87 -96 -92 -206 -130 -87 -30
-153 -64 -211 -110 -83 -66 -696 -688 -702 -713 -8 -32 6 -57 34 -61 15 -2 59
35 172 147 83 83 156 151 162 151 14 0 1 -14 -190 -205 -108 -109 -142 -149
-142 -169 0 -32 30 -49 62 -37 13 5 96 82 186 172 122 121 166 159 174 151 9
-9 -39 -62 -187 -211 -109 -110 -202 -205 -206 -213 -14 -22 -10 -65 7 -79 45
-37 71 -19 298 210 110 111 203 201 207 201 29 0 -3 -39 -171 -208 -105 -105
-191 -199 -191 -209 -7 -99 66 -113 146 -29 60 62 55 63 131 -12 59 -57 105
-113 110 -132 0 -3 3 -12 7 -20 16 -44 35 -110 31 -110 -3 0 2 -7 10 -16 9 -8
14 -20 11 -25 -4 -5 -2 -9 3 -9 5 0 17 -18 27 -40 10 -22 22 -40 27 -40 4 0 8
-7 8 -15 0 -9 7 -18 15 -21 8 -4 15 -10 15 -14 0 -18 674 -681 698 -687 32 -8
56 7 60 38 2 20 -25 52 -148 173 -129 127 -164 166 -146 166 1 0 80 -76 174
-170 105 -104 179 -170 191 -170 22 0 51 25 51 43 0 21 -23 47 -185 209 -133
134 -168 178 -138 178 3 0 94 -88 202 -196 108 -107 204 -199 212 -205 22 -14
65 -11 79 6 7 9 14 27 16 42 2 23 -28 57 -209 240 -117 117 -213 218 -215 223
-13 38 49 -14 206 -171 184 -183 222 -210 263 -188 25 13 34 53 20 87 -7 16
-34 49 -61 75 -28 26 -50 50 -50 53 0 3 34 39 77 81 71 70 171 132 187 116 3
-4 6 -2 6 3 0 5 8 10 19 11 35 3 149 65 214 117 35 28 64 53 64 56 -1 3 23 28
53 57 172 163 566 567 575 588 12 33 -3 59 -36 63 -19 2 -53 -27 -173 -148
-82 -82 -154 -150 -159 -150 -15 0 9 27 170 185 162 161 188 201 145 224 -12
6 -28 11 -36 11 -9 0 -93 -77 -187 -171 -123 -122 -174 -168 -182 -160 -8 8
48 70 196 219 181 183 207 212 207 240 0 37 -33 64 -69 57 -13 -2 -25 -6 -27
-7 -1 -2 -97 -96 -211 -210 -138 -137 -212 -205 -221 -199 -8 5 49 69 178 199
104 105 190 198 190 206 0 8 3 21 6 29 3 9 -4 25 -16 37 -34 34 -79 22 -141
-39 -59 -58 -48 -60 -140 31 -72 73 -107 131 -125 211 -1 4 -3 9 -4 12 -1 3
-3 9 -4 14 0 5 -4 13 -9 17 -4 4 -7 16 -7 26 0 10 -4 18 -10 18 -5 0 -10 5
-10 11 0 34 -115 162 -405 452 -180 180 -337 334 -348 342 -26 18 -59 19 -75
3z m68 -758 c23 -23 26 -62 7 -79 -18 -14 -57 -6 -80 18 -19 18 -19 19 13 50
18 17 35 31 36 31 2 0 13 -9 24 -20z m-30 -313 c203 -201 215 -207 376 -209
99 -1 119 -4 151 -24 l37 -22 -158 -160 c-86 -88 -165 -170 -174 -183 -9 -13
-19 -26 -22 -29 -19 -14 -33 -95 -34 -196 -1 -98 -4 -116 -22 -141 -12 -15
-24 -28 -27 -28 -3 0 -80 73 -171 163 -199 196 -213 204 -366 203 -86 0 -113
4 -148 21 -24 11 -42 24 -40 29 2 4 75 81 163 171 88 90 167 173 176 185 29
36 40 89 43 205 2 90 6 119 22 145 10 18 21 33 24 33 3 0 79 -73 170 -163z
m-663 -359 c18 -14 8 -57 -19 -84 l-24 -25 -33 31 c-28 27 -30 34 -19 48 37
47 62 55 95 30z m1363 -38 c32 -30 32 -31 14 -53 -30 -34 -47 -45 -64 -39 -19
6 -40 32 -40 48 0 11 47 74 55 74 2 0 17 -14 35 -30z m-705 -686 c15 -14 26
-26 24 -27 -2 -1 -18 -14 -35 -30 l-30 -27 -22 20 c-25 23 -28 54 -9 75 18 21
41 18 72 -11z"/>
</g>
</svg>
